<svg xmlns="http://www.w3.org/2000/svg" width="128" height="128" viewBox="0 0 128 128">
  <defs>
    <linearGradient id="arrowA" x1="16" y1="20" x2="104" y2="108" gradientUnits="userSpaceOnUse">
      <stop offset="0" stop-color="#3f8cff"/>
      <stop offset="1" stop-color="#0b57d0"/>
    </linearGradient>
    <linearGradient id="arrowB" x1="112" y1="108" x2="24" y2="20" gradientUnits="userSpaceOnUse">
      <stop offset="0" stop-color="#55c6ff"/>
      <stop offset="1" stop-color="#1a73e8"/>
    </linearGradient>
    <filter id="softShadow" x="-20%" y="-20%" width="140%" height="140%">
      <feDropShadow dx="0" dy="4" stdDeviation="5" flood-color="#0b57d0" flood-opacity="0.20"/>
    </filter>
  </defs>
  <g filter="url(#softShadow)">
    <path fill="url(#arrowA)" d="M39 17 13 43l26 26V53h51v21h18V35H39V17Z"/>
    <path fill="url(#arrowB)" d="M89 111 115 85 89 59v16H38V54H20v39h69v18Z"/>
    <path fill="#ffffff" fill-opacity="0.92" d="M49 53h41v21H79V64H49V53Zm30 22H38V54h11v10h30v11Z"/>
    <path fill="#0b57d0" fill-opacity="0.16" d="M39 17 13 43l26 26V53h9L28 33l11-11v-5Zm50 94 26-26-26-26v16h-9l20 20-11 11v5Z"/>
  </g>
</svg>
