<svg xmlns="http://www.w3.org/2000/svg" width="440" height="280" viewBox="0 0 440 280">
  <defs>
    <linearGradient id="bg" x1="0" y1="0" x2="440" y2="280" gradientUnits="userSpaceOnUse">
      <stop offset="0" stop-color="#f7fbff"/>
      <stop offset="0.58" stop-color="#eef5ff"/>
      <stop offset="1" stop-color="#dbeafe"/>
    </linearGradient>
    <linearGradient id="brand" x1="44" y1="42" x2="142" y2="136" gradientUnits="userSpaceOnUse">
      <stop offset="0" stop-color="#3f8cff"/>
      <stop offset="1" stop-color="#0b57d0"/>
    </linearGradient>
    <linearGradient id="brand2" x1="144" y1="140" x2="48" y2="44" gradientUnits="userSpaceOnUse">
      <stop offset="0" stop-color="#55c6ff"/>
      <stop offset="1" stop-color="#1a73e8"/>
    </linearGradient>
    <filter id="shadow" x="-20%" y="-20%" width="140%" height="140%">
      <feDropShadow dx="0" dy="14" stdDeviation="16" flood-color="#1a3c6e" flood-opacity="0.18"/>
    </filter>
  </defs>
  <rect width="440" height="280" rx="0" fill="url(#bg)"/>
  <circle cx="372" cy="50" r="86" fill="#d3e3fd" opacity="0.55"/>
  <circle cx="58" cy="250" r="96" fill="#a8c7fa" opacity="0.30"/>
  <g transform="translate(34 48) scale(0.86)" filter="url(#shadow)">
    <path fill="url(#brand)" d="M39 17 13 43l26 26V53h51v21h18V35H39V17Z"/>
    <path fill="url(#brand2)" d="M89 111 115 85 89 59v16H38V54H20v39h69v18Z"/>
    <path fill="#fff" fill-opacity="0.92" d="M49 53h41v21H79V64H49V53Zm30 22H38V54h11v10h30v11Z"/>
  </g>
  <g filter="url(#shadow)">
    <rect x="170" y="52" width="218" height="76" rx="18" fill="#ffffff"/>
    <rect x="190" y="74" width="82" height="14" rx="7" fill="#c2d7ff"/>
    <rect x="190" y="98" width="148" height="10" rx="5" fill="#e7ecf4"/>
    <circle cx="356" cy="90" r="16" fill="#0b57d0" opacity="0.14"/>
    <path d="M349 91h14M356 84v14" stroke="#0b57d0" stroke-width="4" stroke-linecap="round"/>
    <rect x="138" y="152" width="250" height="78" rx="18" fill="#ffffff" opacity="0.96"/>
    <rect x="160" y="174" width="52" height="13" rx="7" fill="#198754" opacity="0.82"/>
    <rect x="224" y="174" width="72" height="13" rx="7" fill="#0b57d0" opacity="0.82"/>
    <rect x="160" y="200" width="190" height="10" rx="5" fill="#e7ecf4"/>
    <path d="M344 178h16v16h-16z" fill="none" stroke="#5f6368" stroke-width="4" stroke-linejoin="round"/>
  </g>
</svg>
